<svg width="17" height="17" viewBox="0 0 17 17" fill="none" xmlns="http://www.w3.org/2000/svg">
<path d="M13.459 2.83398H3.54232C3.15112 2.83398 2.83398 3.15112 2.83398 3.54232V13.459C2.83398 13.8502 3.15112 14.1673 3.54232 14.1673H13.459C13.8502 14.1673 14.1673 13.8502 14.1673 13.459V3.54232C14.1673 3.15112 13.8502 2.83398 13.459 2.83398Z" stroke="#333333" stroke-linecap="round" stroke-linejoin="round"/>
<path d="M11.334 11.334H11.3354V11.3354H11.334V11.334Z" stroke="#333333" stroke-linecap="round" stroke-linejoin="round"/>
<path d="M8.5 11.334H8.50142V11.3354H8.5V11.334Z" stroke="#333333" stroke-linecap="round" stroke-linejoin="round"/>
<path d="M5.66602 11.334H5.66743V11.3354H5.66602V11.334Z" stroke="#333333" stroke-linecap="round" stroke-linejoin="round"/>
<path d="M11.334 8.5H11.3354V8.50142H11.334V8.5Z" stroke="#333333" stroke-linecap="round" stroke-linejoin="round"/>
<path d="M8.5 8.5H8.50142V8.50142H8.5V8.5Z" stroke="#333333" stroke-linecap="round" stroke-linejoin="round"/>
<path d="M5.66602 8.5H5.66743V8.50142H5.66602V8.5Z" stroke="#333333" stroke-linecap="round" stroke-linejoin="round"/>
<path d="M2.83398 5.66602H14.1673" stroke="#333333" stroke-linecap="round" stroke-linejoin="round"/>
<path d="M11.334 1.41602V2.83268" stroke="#333333" stroke-linecap="round" stroke-linejoin="round"/>
<path d="M5.66602 1.41602V2.83268" stroke="#333333" stroke-linecap="round" stroke-linejoin="round"/>
</svg>
