<svg width="25" height="25" viewBox="0 0 25 25" fill="none" xmlns="http://www.w3.org/2000/svg">
<path d="M19.791 4.16602H5.20768C4.63239 4.16602 4.16602 4.63239 4.16602 5.20768V19.791C4.16602 20.3663 4.63239 20.8327 5.20768 20.8327H19.791C20.3663 20.8327 20.8327 20.3663 20.8327 19.791V5.20768C20.8327 4.63239 20.3663 4.16602 19.791 4.16602Z" stroke="#3EB2E2" stroke-width="2" stroke-linecap="round" stroke-linejoin="round"/>
<path d="M16.666 16.666H16.668V16.668H16.666V16.666Z" stroke="#3EB2E2" stroke-linecap="round" stroke-linejoin="round"/>
<path d="M12.5 16.666H12.502V16.668H12.5V16.666Z" stroke="#3EB2E2" stroke-linecap="round" stroke-linejoin="round"/>
<path d="M8.33398 16.666H8.33598V16.668H8.33398V16.666Z" stroke="#3EB2E2" stroke-linecap="round" stroke-linejoin="round"/>
<path d="M16.666 12.5H16.668V12.502H16.666V12.5Z" stroke="#3EB2E2" stroke-linecap="round" stroke-linejoin="round"/>
<path d="M12.5 12.5H12.502V12.502H12.5V12.5Z" stroke="#3EB2E2" stroke-linecap="round" stroke-linejoin="round"/>
<path d="M8.33398 12.5H8.33598V12.502H8.33398V12.5Z" stroke="#3EB2E2" stroke-linecap="round" stroke-linejoin="round"/>
<path d="M4.16602 8.33398H20.8327" stroke="#3EB2E2" stroke-linecap="round" stroke-linejoin="round"/>
<path d="M16.666 2.08398V4.16732" stroke="#3EB2E2" stroke-linecap="round" stroke-linejoin="round"/>
<path d="M8.33398 2.08398V4.16732" stroke="#3EB2E2" stroke-linecap="round" stroke-linejoin="round"/>
</svg>
