<svg width="21" height="104" viewBox="0 0 21 104" fill="none" xmlns="http://www.w3.org/2000/svg">
<rect x="21" width="104" height="21" transform="rotate(90 21 0)" fill="#3E86F5"/>
<path d="M8.786 24.538C7.848 24.538 7.302 23.88 7.302 22.802L7.302 20.646L10.34 20.646L10.34 22.746C10.34 23.81 9.752 24.538 8.786 24.538ZM13.028 24.286C12.132 24.286 11.642 23.656 11.642 22.62L11.642 20.646L14.428 20.646L14.428 22.62C14.428 23.656 13.91 24.286 13.028 24.286ZM8.618 26.134C9.78 26.134 10.816 25.294 10.998 24.258C11.334 25.196 12.048 25.91 13.224 25.91C14.596 25.91 15.73 24.818 15.73 22.76L15.73 19.05L6 19.05L6 22.942C6 24.93 7.134 26.134 8.618 26.134ZM12.496 31.1164C12.496 32.3064 11.74 33.2444 10.55 33.2724L10.55 29.0024C11.768 29.1704 12.496 30.0384 12.496 31.1164ZM8.296 34.7284L8.296 33.0064C7.694 32.7124 7.218 32.1664 7.218 31.1864C7.218 30.0104 7.988 29.1004 9.262 28.9884L9.262 34.8824C9.528 34.9244 9.78 34.9384 10.046 34.9384C12.314 34.9384 13.84 33.3844 13.84 31.1864C13.84 28.9044 12.286 27.3364 9.864 27.3364C7.442 27.3364 5.874 28.9744 5.874 31.1864C5.874 33.0764 6.952 34.2944 8.296 34.7284ZM8.156 42.263C10.942 42.179 10.074 37.825 11.628 37.825C12.146 37.825 12.496 38.273 12.496 39.127C12.496 39.995 12.034 40.513 11.362 40.569L11.362 42.165C12.902 42.081 13.84 40.933 13.84 39.183C13.84 37.363 12.846 36.215 11.614 36.215C8.786 36.215 9.654 40.695 8.142 40.695C7.61 40.695 7.218 40.205 7.218 39.281C7.218 38.399 7.736 37.797 8.366 37.741L8.366 36.089C6.966 36.159 5.874 37.461 5.874 39.309C5.874 41.129 6.854 42.263 8.156 42.263ZM8.142 44.2395C6.574 44.2395 6 45.0935 6 46.4655L6 47.7255L7.33 47.7255L7.33 46.7455C7.33 46.0735 7.568 45.8495 8.142 45.8495L12.412 45.8495L12.412 47.7255L13.714 47.7255L13.714 45.8495L15.632 45.8495L15.632 44.2395L13.714 44.2395L13.714 43.3295L12.412 43.3295L12.412 44.2395L8.142 44.2395ZM11.25 54.4292L14.428 54.4292L14.428 56.1932C14.428 57.4392 13.84 57.9992 12.832 57.9992C11.852 57.9992 11.25 57.4392 11.25 56.1932L11.25 54.4292ZM12.832 59.6372C14.414 59.6372 15.73 58.5032 15.73 56.1932L15.73 52.8332L6 52.8332L6 54.4292L9.948 54.4292L9.948 56.1932C9.948 58.7272 11.446 59.6372 12.832 59.6372ZM10.06 62.7554C11.698 62.7554 12.188 63.4834 12.188 64.6594L12.188 65.0654L13.84 65.0654C13.84 63.9734 13.364 63.2034 12.594 62.7554L13.714 62.7554L13.714 61.1594L6 61.1594L6 62.7554L10.06 62.7554ZM6 66.5324L6 68.1284L13.714 68.1284L13.714 66.5324L6 66.5324ZM14.736 67.3444C14.736 67.9044 15.184 68.3524 15.758 68.3524C16.332 68.3524 16.78 67.9044 16.78 67.3444C16.78 66.7704 16.332 66.3224 15.758 66.3224C15.184 66.3224 14.736 66.7704 14.736 67.3444ZM9.864 69.6918C7.442 69.6918 5.874 71.2598 5.874 73.4718C5.874 75.3618 6.924 76.5938 8.436 77.0278L8.436 75.3058C7.638 75.0118 7.218 74.4238 7.218 73.4718C7.218 72.1838 8.17 71.3298 9.864 71.3298C11.544 71.3298 12.496 72.1838 12.496 73.4718C12.496 74.4238 12.02 75.0398 11.278 75.3058L11.278 77.0278C12.902 76.5938 13.84 75.3618 13.84 73.4718C13.84 71.2598 12.272 69.6918 9.864 69.6918ZM12.496 81.8664C12.496 83.0564 11.74 83.9944 10.55 84.0224L10.55 79.7524C11.768 79.9204 12.496 80.7884 12.496 81.8664ZM8.296 85.4784L8.296 83.7564C7.694 83.4624 7.218 82.9164 7.218 81.9364C7.218 80.7604 7.988 79.8504 9.262 79.7384L9.262 85.6324C9.528 85.6744 9.78 85.6884 10.046 85.6884C12.314 85.6884 13.84 84.1344 13.84 81.9364C13.84 79.6544 12.286 78.0864 9.864 78.0864C7.442 78.0864 5.874 79.7244 5.874 81.9364C5.874 83.8264 6.952 85.0444 8.296 85.4784Z" fill="white"/>
</svg>
