<svg width="21" height="104" viewBox="0 0 21 104" fill="none" xmlns="http://www.w3.org/2000/svg">
<rect x="21" width="104" height="21" transform="rotate(90 21 0)" fill="#FB746C"/>
<path d="M15.744 26.426L15.744 21.05L6 21.05L6 26.426L7.302 26.426L7.302 22.646L10.284 22.646L10.284 26.006L11.586 26.006L11.586 22.646L14.442 22.646L14.442 26.426L15.744 26.426ZM6 32.3818L6 34.1878L9.906 31.6958L13.714 34.1878L13.714 32.5218L11.096 30.9538L13.714 29.2878L13.714 27.4818L9.794 29.9738L6 27.4818L6 29.1478L8.618 30.7158L6 32.3818ZM9.864 34.8461C7.442 34.8461 5.874 36.4141 5.874 38.6261C5.874 40.5161 6.924 41.7481 8.436 42.1821L8.436 40.4601C7.638 40.1661 7.218 39.5781 7.218 38.6261C7.218 37.3381 8.17 36.4841 9.864 36.4841C11.544 36.4841 12.496 37.3381 12.496 38.6261C12.496 39.5781 12.02 40.1941 11.278 40.4601L11.278 42.1821C12.902 41.7481 13.84 40.5161 13.84 38.6261C13.84 36.4141 12.272 34.8461 9.864 34.8461ZM6 43.7727L6 45.3687L16.36 45.3687L16.36 43.7727L6 43.7727ZM13.714 54.4501L13.714 52.8541L9.416 52.8541C8.002 52.8541 7.274 52.0841 7.274 50.9081C7.274 49.7461 8.002 48.9761 9.416 48.9761L13.714 48.9761L13.714 47.3941L9.178 47.3941C7.022 47.3941 5.888 48.7661 5.888 50.5721C5.888 51.4821 6.266 52.3501 6.924 52.8541L6 52.8541L6 54.4501L13.714 54.4501ZM8.156 62.3099C10.942 62.2259 10.074 57.8719 11.628 57.8719C12.146 57.8719 12.496 58.3199 12.496 59.1739C12.496 60.0419 12.034 60.5599 11.362 60.6159L11.362 62.2119C12.902 62.1279 13.84 60.9799 13.84 59.2299C13.84 57.4099 12.846 56.2619 11.614 56.2619C8.786 56.2619 9.654 60.7419 8.142 60.7419C7.61 60.7419 7.218 60.2519 7.218 59.3279C7.218 58.4459 7.736 57.8439 8.366 57.7879L8.366 56.1359C6.966 56.2059 5.874 57.5079 5.874 59.3559C5.874 61.1759 6.854 62.3099 8.156 62.3099ZM6 64.0344L6 65.6304L13.714 65.6304L13.714 64.0344L6 64.0344ZM14.736 64.8464C14.736 65.4064 15.184 65.8544 15.758 65.8544C16.332 65.8544 16.78 65.4064 16.78 64.8464C16.78 64.2724 16.332 63.8244 15.758 63.8244C15.184 63.8244 14.736 64.2724 14.736 64.8464ZM13.714 66.8158L6 69.7418L6 71.6458L13.714 74.5858L13.714 72.8918L7.428 70.7078L13.714 68.5238L13.714 66.8158ZM12.496 79.0402C12.496 80.2302 11.74 81.1682 10.55 81.1962L10.55 76.9262C11.768 77.0942 12.496 77.9622 12.496 79.0402ZM8.296 82.6522L8.296 80.9302C7.694 80.6362 7.218 80.0902 7.218 79.1102C7.218 77.9342 7.988 77.0242 9.262 76.9122L9.262 82.8062C9.528 82.8482 9.78 82.8622 10.046 82.8622C12.314 82.8622 13.84 81.3082 13.84 79.1102C13.84 76.8282 12.286 75.2602 9.864 75.2602C7.442 75.2602 5.874 76.8982 5.874 79.1102C5.874 81.0002 6.952 82.2182 8.296 82.6522Z" fill="white"/>
</svg>
