<svg width="57" height="57" viewBox="0 0 57 57" fill="none" xmlns="http://www.w3.org/2000/svg">
<path fill-rule="evenodd" clip-rule="evenodd" d="M0 28.274C0 12.6587 12.6587 0 28.274 0C43.8893 0 56.5479 12.6587 56.5479 28.274C56.5479 43.8893 43.8893 56.5479 28.274 56.5479C12.6587 56.5479 0 43.8893 0 28.274Z" fill="#EF6F6F"/>
<path fill-rule="evenodd" clip-rule="evenodd" d="M28.0809 13C23.9855 13 23.4715 13.0179 21.863 13.0911C20.2577 13.1646 19.1619 13.4188 18.2031 13.7917C17.2113 14.1768 16.37 14.6921 15.5318 15.5305C14.693 16.3687 14.1778 17.21 13.7914 18.2015C13.4175 19.1606 13.163 20.2567 13.0908 21.8615C13.0188 23.47 13 23.9842 13 28.0796C13 32.175 13.0182 32.6874 13.0911 34.2959C13.1649 35.9012 13.4191 36.997 13.7917 37.9558C14.1772 38.9476 14.6924 39.7889 15.5309 40.6271C16.3687 41.4659 17.21 41.9824 18.2012 42.3675C19.1606 42.7404 20.2567 42.9946 21.8618 43.0681C23.4703 43.1413 23.9839 43.1592 28.079 43.1592C32.1747 43.1592 32.6871 43.1413 34.2956 43.0681C35.9009 42.9946 36.9979 42.7404 37.9574 42.3675C38.9489 41.9824 39.7889 41.4659 40.6268 40.6271C41.4656 39.7889 41.9808 38.9476 42.3672 37.9561C42.7379 36.997 42.9924 35.9009 43.0678 34.2962C43.1401 32.6877 43.1589 32.175 43.1589 28.0796C43.1589 23.9842 43.1401 23.4703 43.0678 21.8618C42.9924 20.2564 42.7379 19.1606 42.3672 18.2018C41.9808 17.21 41.4656 16.3687 40.6268 15.5305C39.788 14.6917 38.9492 14.1765 37.9564 13.7917C36.9951 13.4188 35.8987 13.1646 34.2934 13.0911C32.6849 13.0179 32.1728 13 28.0762 13L28.0809 13Z" stroke="white" stroke-width="1.5"/>
<path fill-rule="evenodd" clip-rule="evenodd" d="M26.5776 15.004C26.9998 15.0033 27.4709 15.004 28.0002 15.004C32.2342 15.004 32.7361 15.0192 34.4081 15.0952C35.9542 15.1659 36.7934 15.4243 37.3524 15.6413C38.0924 15.9288 38.62 16.2724 39.1747 16.8275C39.7297 17.3826 40.0733 17.9113 40.3614 18.6514C40.5784 19.2098 40.8371 20.0491 40.9075 21.5954C40.9835 23.2673 41 23.7695 41 28.0021C41 32.2348 40.9835 32.737 40.9075 34.4089C40.8368 35.9552 40.5784 36.7945 40.3614 37.3529C40.074 38.093 39.7297 38.62 39.1747 39.1748C38.6197 39.7299 38.0927 40.0735 37.3524 40.361C36.794 40.5791 35.9542 40.8368 34.4081 40.9075C32.7364 40.9835 32.2342 41 28.0002 41C23.7658 41 23.2639 40.9835 21.5923 40.9075C20.0461 40.8361 19.207 40.5777 18.6476 40.3606C17.9076 40.0732 17.379 39.7296 16.824 39.1745C16.269 38.6194 15.9254 38.092 15.6373 37.3516C15.4202 36.7932 15.1616 35.9539 15.0912 34.4076C15.0152 32.7357 15 32.2334 15 27.9982C15 23.7629 15.0152 23.2633 15.0912 21.5914C15.1619 20.0451 15.4202 19.2058 15.6373 18.6468C15.9247 17.9067 16.269 17.378 16.824 16.8229C17.379 16.2678 17.9076 15.9242 18.6476 15.636C19.2066 15.418 20.0461 15.1603 21.5923 15.0892C23.0551 15.0231 23.6221 15.0033 26.5776 15V15.004Z" stroke="white" stroke-width="1.5"/>
<path fill-rule="evenodd" clip-rule="evenodd" d="M36.3252 18.4147C35.3262 18.4147 34.5156 19.2243 34.5156 20.2236C34.5156 21.2226 35.3262 22.0332 36.3252 22.0332C37.3242 22.0332 38.1347 21.2226 38.1347 20.2236C38.1347 19.2246 37.3242 18.4141 36.3252 18.4141V18.4147Z" stroke="white"/>
<path fill-rule="evenodd" clip-rule="evenodd" d="M28.2753 20.5293C23.9986 20.5293 20.5312 23.9967 20.5312 28.2733C20.5312 32.5499 23.9986 36.0157 28.2753 36.0157C32.5519 36.0157 36.018 32.5499 36.018 28.2733C36.018 23.9967 32.5516 20.5293 28.2749 20.5293L28.2753 20.5293Z" stroke="white" stroke-width="2"/>
<path fill-rule="evenodd" clip-rule="evenodd" d="M28.2746 23.248C31.0505 23.248 33.3011 25.4984 33.3011 28.2746C33.3011 31.0505 31.0505 33.3011 28.2746 33.3011C25.4984 33.3011 23.248 31.0505 23.248 28.2746C23.248 25.4984 25.4984 23.248 28.2746 23.248V23.248Z" fill="#FB746C"/>
</svg>
