<svg width="35" height="35" viewBox="0 0 35 35" fill="none" xmlns="http://www.w3.org/2000/svg">
<ellipse cx="17.5" cy="17.6046" rx="17.5" ry="16.8824" fill="#1DA1F2"/>
<path fill-rule="evenodd" clip-rule="evenodd" d="M28 10.665C27.228 11.0043 26.3971 11.2328 25.5257 11.336C26.4153 10.8084 27.0985 9.97333 27.4197 8.97833C26.5882 9.46717 25.665 9.821 24.6843 10.0128C23.8983 9.18467 22.7776 8.66675 21.5394 8.66675C19.1603 8.66675 17.2312 10.575 17.2312 12.9285C17.2312 13.2623 17.2697 13.5877 17.3432 13.9C13.7622 13.7227 10.588 12.0256 8.4629 9.4471C8.09193 10.0765 7.87984 10.8084 7.87984 11.5894C7.87984 13.0677 8.63929 14.3722 9.79631 15.1366C9.08936 15.1145 8.4258 14.9227 7.84414 14.6035V14.6568C7.84414 16.7223 9.33014 18.4443 11.2998 18.8369C10.9386 18.9338 10.5579 18.9865 10.1652 18.9865C9.88731 18.9865 9.61713 18.9594 9.35394 18.9096C9.90201 20.6025 11.4937 21.835 13.3787 21.8697C11.9046 23.0121 10.0469 23.6942 8.02823 23.6942C7.67965 23.6942 7.33668 23.6741 7 23.6339C8.90667 24.8429 11.171 25.5491 13.6041 25.5491C21.5282 25.5491 25.8616 19.055 25.8616 13.4236C25.8616 13.2387 25.8581 13.0546 25.849 12.8725C26.6918 12.2701 27.4225 11.5195 28 10.665Z" fill="white"/>
</svg>
