<svg width="57" height="57" viewBox="0 0 57 57" fill="none" xmlns="http://www.w3.org/2000/svg">
<path fill-rule="evenodd" clip-rule="evenodd" d="M0 28.274C0 12.6587 12.6587 0 28.274 0C43.8893 0 56.5479 12.6587 56.5479 28.274C56.5479 43.8893 43.8893 56.5479 28.274 56.5479C12.6587 56.5479 0 43.8893 0 28.274Z" fill="#EF6F6F"/>
<path d="M35.9187 25.3629C37.8325 26.7358 40.1769 27.5436 42.709 27.5436V22.6537C42.2298 22.6538 41.7518 22.6036 41.283 22.5039V26.353C38.7511 26.353 36.407 25.5452 34.4927 24.1724V34.1513C34.4927 39.1432 30.4603 43.1897 25.4864 43.1897C23.6305 43.1897 21.9056 42.6266 20.4727 41.6609C22.1081 43.3391 24.3889 44.3802 26.9121 44.3802C31.8863 44.3802 35.9189 40.3337 35.9189 35.3416V25.3629H35.9187V25.3629ZM37.6778 20.4296C36.6998 19.3573 36.0577 17.9715 35.9187 16.4395V15.8105H34.5674C34.9075 17.7577 36.0677 19.4213 37.6778 20.4296ZM23.6186 37.8303C23.0722 37.1112 22.7769 36.2317 22.7782 35.3273C22.7782 33.0441 24.6226 31.193 26.8981 31.193C27.3222 31.1928 27.7437 31.258 28.1478 31.3867V26.3875C27.6755 26.3226 27.1989 26.295 26.7224 26.3051V30.1962C26.318 30.0675 25.8963 30.0022 25.4721 30.0026C23.1966 30.0026 21.3523 31.8536 21.3523 34.137C21.3523 35.7515 22.2742 37.1493 23.6186 37.8303Z" fill="white"/>
<path d="M34.4932 24.1723C36.4074 25.5451 38.7516 26.3529 41.2835 26.3529V22.5038C39.8702 22.2017 38.619 21.4605 37.6783 20.4296C36.0681 19.4212 34.908 17.7576 34.5678 15.8105H31.0182V35.3414C31.0102 37.6182 29.169 39.4619 26.8984 39.4619C25.5604 39.4619 24.3717 38.8218 23.6188 37.8303C22.2745 37.1493 21.3526 35.7514 21.3526 34.1371C21.3526 31.8539 23.1969 30.0027 25.4724 30.0027C25.9083 30.0027 26.3285 30.0708 26.7227 30.1963V26.3052C21.8362 26.4065 17.9062 30.4135 17.9062 35.3415C17.9062 37.8015 18.8849 40.0316 20.4733 41.661C21.9062 42.6266 23.6311 43.1898 25.487 43.1898C30.461 43.1898 34.4933 39.1431 34.4933 34.1513V24.1723H34.4932Z" fill="white"/>
<path d="M41.2836 22.5038V21.463C40.0092 21.465 38.7597 21.1068 37.6785 20.4294C38.6356 21.4811 39.8961 22.2063 41.2836 22.5038ZM34.568 15.8105C34.5355 15.6244 34.5106 15.4371 34.4933 15.2491V14.6201H29.5922V34.1511C29.5844 36.4277 27.7433 38.2713 25.4725 38.2713C24.8058 38.2713 24.1764 38.1125 23.619 37.8303C24.3718 38.8217 25.5605 39.4617 26.8985 39.4617C29.1689 39.4617 31.0104 37.6183 31.0184 35.3414V15.8105H34.568ZM26.723 26.3051V25.1972C26.3135 25.141 25.9006 25.1128 25.4872 25.113C20.5128 25.1129 16.4805 29.1596 16.4805 34.1511C16.4805 37.2805 18.0653 40.0385 20.4735 41.6608C18.8851 40.0314 17.9065 37.8012 17.9065 35.3413C17.9065 30.4134 21.8363 26.4065 26.723 26.3051Z" fill="white"/>
</svg>
