<svg width="444" height="250" viewBox="0 0 444 250" fill="none" xmlns="http://www.w3.org/2000/svg">
<path fill-rule="evenodd" clip-rule="evenodd" d="M247.539 129.312C251.181 127.018 251.181 124.465 247.539 122.439L209.798 101.376C206.811 99.5584 203.702 100.631 203.794 104.405L203.917 146.979C204.162 151.071 206.576 152.193 210.125 150.296L247.539 129.312ZM9.91099 1.20165C80.7812 9.8317 151.478 14.0722 222 14.0424C292.522 14.0027 363.229 9.68274 434.099 1.20165L444 0.019862V249.973L434.099 248.802C363.219 240.39 292.512 236.04 222 235.961C151.314 235.891 80.6278 240.082 9.94167 248.762L0 249.983V0L9.91099 1.20165ZM222 31.1337C153.738 31.1635 85.6293 27.2904 17.6741 19.4052V230.608C85.7827 222.643 153.902 218.8 222 218.87C290.272 218.949 358.381 222.931 426.336 230.628V19.3853C358.381 27.1514 290.272 31.094 222 31.1337ZM222 55.3555C261.624 55.3555 293.74 86.5388 293.74 125.002C293.74 163.464 261.624 194.648 222 194.648C182.387 194.648 150.271 163.464 150.271 125.002C150.271 86.5388 182.387 55.3555 222 55.3555ZM222 69.4972C253.574 69.4972 279.165 94.3446 279.165 125.002C279.165 155.659 253.574 180.506 222 180.506C190.436 180.506 164.846 155.659 164.846 125.002C164.846 94.3446 190.436 69.4972 222 69.4972Z" fill="#7C7C7C" fill-opacity="0.11"/>
</svg>
